<svg class="dn" version="1.1" xmlns="http://www.w3.org/2000/svg">
  <defs>
    <g id="icon-whatsapp">
      <path d="m0.37 15.852 1.121 -4.18a7.644 7.644 0 0 1 -0.968 -3.73C0.523 3.685 3.994 0.222 8.262 0.222 12.528 0.222 16 3.685 16 7.942s-3.471 7.72 -7.739 7.72c-1.28 0 -2.548 -0.324 -3.681 -0.934zm4.421 -2.693 0.267 0.159a6.281 6.281 0 0 0 3.204 0.883c3.458 0 6.274 -2.808 6.274 -6.258S11.72 1.684 8.261 1.684 1.988 4.492 1.988 7.942c0 1.138 0.319 2.262 0.917 3.247l0.166 0.267 -0.625 2.332 2.357 -0.629z" fill="#00e676"/>
      <path fill-rule="evenodd" clip-rule="evenodd" d="M11.141 9.016c-0.319 -0.191 -0.733 -0.4 -1.108 -0.248 -0.287 0.114 -0.472 0.565 -0.657 0.794 -0.095 0.121 -0.21 0.133 -0.357 0.076 -1.083 -0.433 -1.911 -1.15 -2.503 -2.141 -0.102 -0.153 -0.083 -0.273 0.039 -0.42 0.178 -0.21 0.408 -0.451 0.452 -0.737 0.051 -0.286 -0.083 -0.616 -0.204 -0.871 -0.153 -0.324 -0.319 -0.788 -0.644 -0.972 -0.299 -0.172 -0.694 -0.076 -0.962 0.14 -0.459 0.375 -0.681 0.959 -0.675 1.544 0 0.165 0.019 0.331 0.064 0.489 0.095 0.381 0.267 0.743 0.471 1.08 0.153 0.254 0.312 0.508 0.49 0.743a7.763 7.763 0 0 0 2.127 1.976c0.414 0.255 0.866 0.477 1.332 0.629 0.522 0.172 0.987 0.35 1.547 0.241 0.587 -0.114 1.166 -0.476 1.401 -1.042 0.07 -0.165 0.102 -0.356 0.063 -0.533 -0.083 -0.369 -0.573 -0.585 -0.872 -0.763z" fill="#00e676"/>
    </g>

    <g id="icon-phone">
      <path fill="#000000" stroke="#000000" stroke-width="1" stroke-miterlimit="10" d="M6.8 4.25 4.75 2.15c-0.25 -0.2 -0.6 -0.2 -0.85 0L2.35 3.75c-0.35 0.3 -0.45 0.8 -0.3 1.2 0.4 1.15 1.45 3.45 3.5 5.5s4.35 3.05 5.5 3.5c0.45 0.15 0.9 0.05 1.25 -0.25l1.55 -1.55c0.25 -0.25 0.25 -0.6 0 -0.85l-2.05 -2.05c-0.25 -0.25 -0.6 -0.25 -0.85 0L9.7 10.5s-1.4 -0.6 -2.5 -1.65 -1.65 -2.5 -1.65 -2.5l1.25 -1.25c0.25 -0.25 0.25 -0.65 0 -0.85z"/>
    </g>

  </defs>
</svg>
