<svg width="27" height="26" viewBox="0 0 27 26" fill="none" xmlns="http://www.w3.org/2000/svg">
<path d="M12.9856 12.1627L13.7926 11.3213C10.5185 11.3213 6.38301 11.3213 4.36818 11.3213C3.87593 11.3213 3.68131 11.4444 3.68417 11.7478C3.68704 12.0483 3.87879 12.1599 4.37963 12.1599C5.79058 12.1599 11.4945 12.1599 12.9083 12.1599H12.9856V12.1627Z" fill="black"/>
<path d="M13.9644 6.09537C13.9644 6.19268 13.9644 6.28998 13.9644 6.39015C13.9558 7.05127 13.6066 7.39757 12.9484 7.40043C12.7538 7.40043 12.5563 7.40901 12.3617 7.40043C12.1871 7.39184 12.1098 7.45767 12.1155 7.63797C12.1241 7.86407 12.1241 8.0873 12.1155 8.3134C12.0955 8.88579 11.7149 9.26357 11.1453 9.27502C10.9021 9.28074 10.6559 9.28074 10.4098 9.27502C9.86316 9.25784 9.49397 8.89437 9.47394 8.3506C9.46535 8.11592 9.46821 7.88124 9.47394 7.64656C9.4768 7.47484 9.41097 7.3947 9.23067 7.40329C8.99599 7.41188 8.76131 7.40901 8.52663 7.40329C8.00861 7.3947 7.62224 7.01406 7.6108 6.49605C7.60507 6.2213 7.60221 5.94655 7.6108 5.67466C7.62511 5.17096 8.00002 4.79318 8.50945 4.77028C8.7241 4.76169 8.94161 4.75025 9.15626 4.77028C9.42528 4.79604 9.49969 4.68156 9.48252 4.43257C9.46535 4.21792 9.47394 4.00327 9.48252 3.78576C9.50256 3.33357 9.80592 2.97869 10.2553 2.93004C10.5758 2.89569 10.9021 2.89283 11.2226 2.91286C11.7521 2.94435 12.0955 3.3164 12.1184 3.85159C12.127 4.07768 12.127 4.30092 12.1184 4.52701C12.1127 4.70159 12.1699 4.77887 12.3531 4.76742C12.5591 4.75597 12.7652 4.76456 12.9684 4.76742C13.5866 4.77314 13.9529 5.13375 13.9672 5.74907C13.9672 5.86641 13.9672 5.98375 13.9672 6.10109L13.9644 6.09537ZM8.56955 6.4617C8.93302 6.4617 9.2736 6.4617 9.61417 6.4617C10.1579 6.4617 10.4212 6.725 10.4241 7.27164C10.4241 7.60935 10.4241 7.94992 10.4241 8.29908H11.1539C11.1539 7.94992 11.151 7.61794 11.1539 7.28595C11.1625 6.71642 11.4201 6.4617 11.9839 6.4617C12.3216 6.4617 12.6622 6.4617 12.997 6.4617V5.74335C12.9569 5.72904 12.9398 5.71759 12.9197 5.71759C12.6078 5.71473 12.293 5.71759 11.981 5.71187C11.4143 5.70328 11.1625 5.44857 11.1568 4.87904C11.1539 4.54991 11.1568 4.22078 11.1568 3.87735H10.427C10.427 4.22078 10.427 4.54991 10.427 4.8819C10.427 5.45143 10.1751 5.70614 9.60559 5.71187C9.26501 5.71473 8.92444 5.71187 8.57242 5.71187V6.45884L8.56955 6.4617Z" fill="black"/>
<path d="M8.64682 19.9273C10.1007 19.9273 11.5546 19.9273 13.0113 19.9273C13.1201 19.9273 13.2374 19.933 13.3404 19.9731C13.4807 20.0246 13.5665 20.1248 13.5923 20.2593C13.6324 20.4882 13.4692 20.7172 13.2403 20.7572C13.1573 20.7716 13.0714 20.7744 12.9856 20.7744C10.095 20.7744 7.20153 20.7744 4.31094 20.7744C3.88737 20.7744 3.69276 20.6456 3.68703 20.3623C3.67845 20.0675 3.87878 19.9273 4.3138 19.9273C5.7591 19.9273 7.20439 19.9273 8.65254 19.9273H8.64682Z" fill="black"/>
<path d="M20.9161 12.4375C20.9161 12.2286 20.9161 12.0197 20.9161 11.8079L20.0833 12.5606C20.0833 14.4838 20.0833 16.4071 20.0833 18.3303V18.6279H19.7455C18.5321 18.6279 17.3186 18.6222 16.1051 18.6279C15.1292 18.6337 14.5482 19.2175 14.5482 20.1877C14.5453 21.4527 14.5482 22.7177 14.5482 23.9827V24.2861C14.4452 24.2918 14.3622 24.3004 14.2792 24.3004C10.2667 24.3004 6.25709 24.3004 2.24461 24.3004C1.69226 24.3004 1.48047 24.0829 1.48047 23.5334C1.48047 16.2754 1.48047 9.02032 1.48047 1.76238C1.48047 1.21002 1.68939 0.992508 2.24175 0.992508C7.93993 0.992508 13.6381 0.992508 19.3363 0.992508C19.8743 0.992508 20.0861 1.21002 20.0861 1.7452C20.0861 2.81272 20.0861 3.88023 20.0861 4.94774L20.9161 4.17501C20.9161 3.38797 20.9218 2.60093 20.9304 1.81389C20.9361 0.726345 20.1691 0.142504 19.2476 0.145366C13.5666 0.165399 7.88555 0.156814 2.20169 0.156814C1.43182 0.156814 0.859423 0.568937 0.690567 1.26439C0.644775 1.4447 0.644775 1.63931 0.644775 1.8282C0.644775 5.43428 0.644775 9.04322 0.644775 12.6493C0.644775 16.2811 0.644775 19.9158 0.644775 23.5477C0.644775 24.3204 0.996797 24.8584 1.6436 25.0616C1.81246 25.1132 1.99849 25.1418 2.17593 25.1418C6.26568 25.1475 10.3554 25.1446 14.4452 25.1446C14.9517 25.1446 15.381 24.9643 15.7388 24.6037C17.2957 23.0296 18.8526 21.4584 20.4095 19.8872C20.7758 19.518 20.9218 19.0744 20.9189 18.5564C20.9104 16.5158 20.9161 14.4752 20.9161 12.4346V12.4375ZM15.381 23.6536C15.381 22.4687 15.3725 21.2266 15.3868 19.9817C15.3896 19.6897 15.6644 19.4779 15.9706 19.4665C16.1853 19.4579 16.3999 19.4636 16.6145 19.4636C17.6019 19.4636 18.5893 19.4636 19.5767 19.4636C19.591 19.4865 19.6053 19.5094 19.6167 19.5352C18.1972 20.9147 16.7777 22.2941 15.3782 23.6536H15.381Z" fill="black"/>
<path d="M11.6691 15.4912C8.86148 15.4912 5.89934 15.4912 4.27661 15.4912C4.18216 15.4912 4.08486 15.4912 3.99614 15.517C3.79007 15.5713 3.6756 15.7144 3.68418 15.9319C3.69277 16.138 3.80725 16.2697 4.00758 16.3126C4.10775 16.3355 4.21078 16.3355 4.31381 16.3355C5.42712 16.3355 9.10761 16.3355 11.3829 16.3355L11.6719 15.4883L11.6691 15.4912Z" fill="black"/>
<path d="M12.1083 17.1168C12.0024 17.1168 11.9223 17.0739 11.8708 16.9852C11.805 16.8736 11.7878 16.6904 11.8279 16.5502C12.177 15.3767 12.5348 14.2234 12.9612 12.8554C12.9927 12.758 13.0528 12.6579 13.1272 12.5835C16.3183 9.38665 19.5094 6.1927 22.7062 3.00161C23.0725 2.63527 23.539 2.43494 24.017 2.43494C24.4949 2.43494 24.97 2.63814 25.3449 3.00447C25.5853 3.23915 25.8028 3.4538 26.0146 3.68275C26.2951 3.98898 26.4496 4.37821 26.4668 4.84757C26.4496 5.38562 26.2579 5.82637 25.8801 6.19842C25.2448 6.83092 24.6123 7.46627 23.9769 8.09877L22.1424 9.93615C20.2134 11.8651 18.2845 13.7941 16.3526 15.7202C16.2525 15.8204 16.1179 15.9005 15.9834 15.9434C15.122 16.2153 14.2577 16.4815 13.3962 16.7448L12.3487 17.0682C12.2715 17.0939 12.1885 17.1168 12.1083 17.1168ZM12.655 16.221L13.3819 15.9921L12.8839 15.4912L12.655 16.2239V16.221ZM13.3647 13.9944C13.2846 14.252 13.2073 14.4953 13.1358 14.7443C13.1386 14.7471 13.1615 14.7872 13.1959 14.8244C13.4849 15.1192 13.7769 15.4082 14.0688 15.6973C14.1232 15.7517 14.1461 15.7603 14.1461 15.7603C14.3865 15.6944 14.6412 15.6172 14.9131 15.5399L15.0247 15.5084C14.7184 15.2422 14.5124 14.9274 14.395 14.5554C14.3893 14.5411 14.3721 14.521 14.3607 14.5153C13.9801 14.4037 13.6652 14.1976 13.3962 13.8857L13.3619 13.9973L13.3647 13.9944ZM22.732 6.62199C22.7062 6.65634 22.6776 6.69354 22.6461 6.72502C21.3582 8.01577 20.0675 9.30365 18.7796 10.5944L17.3629 12.0111C16.6159 12.758 15.869 13.505 15.1191 14.2491C15.0476 14.3207 15.039 14.3636 15.0762 14.4523C15.205 14.7586 15.4139 14.9789 15.7144 15.1249C15.7659 15.1478 15.806 15.1621 15.8403 15.1621C15.8947 15.1621 15.9462 15.1335 16.0121 15.0677C18.0011 13.07 19.9959 11.0781 21.9878 9.08328L23.519 7.55213C23.5448 7.52637 23.5676 7.50062 23.5877 7.47772L22.7291 6.62199H22.732ZM20.2106 6.4932C18.0641 8.63396 15.9205 10.7747 13.774 12.9155C13.7168 12.9727 13.7082 13.0099 13.7397 13.09C13.857 13.3963 14.0631 13.6166 14.3664 13.7683C14.4208 13.7941 14.4666 13.8084 14.5038 13.8084C14.541 13.8084 14.5954 13.7969 14.6812 13.7111C16.7132 11.6762 18.7481 9.64423 20.7858 7.61223L22.1825 6.21846C22.2111 6.18984 22.2397 6.15835 22.2655 6.1326L21.4183 5.28545L20.2106 6.49034V6.4932ZM24.1315 6.90819L24.5722 6.47031L22.4257 4.32383L21.985 4.76458L24.1315 6.90819ZM25.1074 5.98664C25.1475 5.94657 25.1847 5.9065 25.2247 5.8693C25.3392 5.75196 25.4508 5.64034 25.5395 5.52014C25.7914 5.17956 25.84 4.81323 25.6741 4.4841C25.3764 3.89454 24.9385 3.45952 24.4062 3.22198C24.2631 3.15901 24.12 3.12467 23.9826 3.12467C23.6306 3.12467 23.2958 3.33646 22.9523 3.77147L25.1074 5.98377V5.98664Z" fill="black"/>
</svg>
