<svg width="24" height="27" viewBox="0 0 24 27" fill="none" xmlns="http://www.w3.org/2000/svg">
<g clip-path="url(#clip0_444_448)">
<path d="M19.997 27C19.9601 27 19.9231 27 19.8861 26.9973H3.73463C1.94287 26.9973 0.483861 25.631 0.466797 23.9528V8.15191C0.472485 7.2052 1.29442 6.43331 2.29553 6.43331H4.64758V4.41349C4.64758 1.97948 6.74366 0 9.31754 0C10.2874 0 11.2145 0.279709 12.008 0.812232C12.7731 0.336189 13.6548 0.0860643 14.5677 0.0860643H14.6815C15.8674 0.112959 16.9908 0.562108 17.8412 1.34476C18.7144 2.14354 19.2149 3.26238 19.2121 4.41349V6.436H21.6352C22.6392 6.436 23.4611 7.2052 23.4696 8.14922V23.8291C23.4554 25.5746 21.9452 26.9946 20.1023 26.9946C20.1023 26.9946 20.0312 26.9946 19.9999 26.9946L19.997 27ZM2.29553 7.54946C1.94287 7.54946 1.64993 7.8211 1.64424 8.1546V23.9501C1.65846 25.0151 2.58563 25.8839 3.71473 25.8839H17.4829C17.4004 25.7951 17.3264 25.701 17.2553 25.6041C16.8742 25.0797 16.6723 24.4692 16.6752 23.8344V7.54946H13.9875V10.8172C13.9875 11.1238 13.723 11.3739 13.3988 11.3739C13.0746 11.3739 12.8101 11.1238 12.8101 10.8172V7.54946H5.82218V10.8172C5.82218 11.1238 5.55768 11.3739 5.23346 11.3739C4.90924 11.3739 4.64474 11.1238 4.64474 10.8172V7.54946H2.29553ZM17.8554 23.8344C17.8554 24.375 18.0887 24.8995 18.4982 25.276C18.8822 25.6337 19.3884 25.8489 19.9259 25.8758H20.0767C21.2968 25.8758 22.2808 24.956 22.2922 23.8237V8.15191C22.2865 7.81841 21.9936 7.54677 21.6409 7.54677H17.8583V23.8344H17.8554ZM17.2696 6.436C17.2696 6.436 17.3008 6.436 17.3094 6.43869H18.0517V4.41618C18.0545 3.56091 17.682 2.72985 17.0307 2.13547C16.3708 1.51957 15.4977 1.1807 14.5734 1.1807C13.9847 1.1807 13.4073 1.32055 12.8954 1.58412C13.6007 2.38022 13.9875 3.37803 13.9904 4.41618V6.436H17.2724H17.2696ZM12.8101 6.436V4.41618C12.8101 3.62546 12.5114 2.86971 11.9682 2.26995C11.4022 2.85895 11.0809 3.61739 11.0638 4.42156V6.43869H12.8129L12.8101 6.436ZM9.88636 6.436V4.41618C9.91195 3.35651 10.3357 2.35332 11.0837 1.56798C10.549 1.26945 9.94324 1.11346 9.31754 1.11346C7.39211 1.11346 5.82503 2.59538 5.82503 4.41618V6.436H9.8892H9.88636Z" fill="black"/>
</g>
<defs>
<clipPath id="clip0_444_448">
<rect width="23" height="27" fill="white" transform="translate(0.466797)"/>
</clipPath>
</defs>
</svg>
