<svg width="27" height="26" viewBox="0 0 27 26" fill="none" xmlns="http://www.w3.org/2000/svg">
<g clip-path="url(#clip0_444_423)">
<path d="M10.9227 3.25891C6.46555 3.25891 2.85175 6.74365 2.85175 11.0416C2.85175 15.3396 6.46555 18.8243 10.9227 18.8243C15.3799 18.8243 18.9937 15.3396 18.9937 11.0416C18.9889 6.74517 15.3783 3.26347 10.9227 3.25891ZM10.9227 17.527C7.20802 17.527 4.19717 14.6229 4.19717 11.0416C4.19717 7.46036 7.2088 4.55628 10.9227 4.55628C14.6366 4.55628 17.6482 7.46036 17.6482 11.0416C17.6443 14.6221 14.635 17.5232 10.9227 17.527Z" fill="black"/>
<path d="M10.9227 5.85291C7.95206 5.85595 5.54575 8.17708 5.54181 11.0416C5.54181 11.3996 5.84289 11.6899 6.21413 11.6899C6.58536 11.6899 6.88644 11.3996 6.88644 11.0416C6.88881 8.89303 8.69374 7.15256 10.9219 7.15028C11.2932 7.15028 11.5942 6.85995 11.5942 6.50197C11.5942 6.144 11.2932 5.85367 10.9219 5.85367L10.9227 5.85291Z" fill="black"/>
<path d="M22.8124 17.9199C22.2874 17.4137 21.4354 17.4137 20.9105 17.9199L19.8204 16.8687C23.1655 12.1224 21.8878 5.66057 16.9657 2.43424C12.0435 -0.792086 5.34158 0.440683 1.99655 5.18631C-1.34928 9.9327 -0.0708485 16.3952 4.85055 19.6208C8.50612 22.0172 13.3093 22.0172 16.9649 19.6208L18.0549 20.6719C17.53 21.1781 17.53 21.9997 18.0549 22.5059L20.6504 25.0071C21.9406 26.2954 24.0695 26.3311 25.4055 25.087C26.7415 23.8428 26.7785 21.7899 25.4882 20.5017C25.4614 20.4743 25.4339 20.4477 25.4055 20.4219L22.8116 17.9191L22.8124 17.9199ZM1.5063 11.0416C1.5063 6.02691 5.72227 1.9615 10.9227 1.9615C16.1231 1.9615 20.3391 6.02691 20.3391 11.0416C20.3391 16.0563 16.1231 20.1217 10.9227 20.1217C5.72464 20.1164 1.51182 16.054 1.5063 11.0416ZM18.9818 17.8948L19.9592 18.8372L19.007 19.7553L18.0297 18.8129C18.3663 18.5256 18.6847 18.2193 18.9818 17.8948ZM24.4549 24.0906C23.6565 24.8255 22.4002 24.8255 21.6017 24.0906L19.007 21.5893L21.861 18.8372L24.4549 21.3392C25.2423 22.0993 25.2423 23.3305 24.4549 24.0906Z" fill="black"/>
</g>
<defs>
<clipPath id="clip0_444_423">
<rect width="26.3016" height="25.3622" fill="white" transform="translate(0.131744 0.636047)"/>
</clipPath>
</defs>
</svg>
