<svg width="22" height="26" viewBox="0 0 22 26" fill="none" xmlns="http://www.w3.org/2000/svg">
<path d="M21.9343 10.7049C21.7248 10.7239 21.5154 10.7335 21.3059 10.7335C19.0115 10.7335 16.8598 9.57195 15.6031 7.64878V18.1405C15.6031 22.4248 12.128 25.8999 7.84374 25.8999C3.55945 25.8999 0.0939331 22.4248 0.0939331 18.1501C0.0939331 13.8753 3.56897 10.3907 7.85326 10.3907C8.01511 10.3907 8.17696 10.4098 8.32929 10.4193V14.2371C8.16744 14.218 8.01511 14.1895 7.85326 14.1895C5.66351 14.1895 3.89267 15.9603 3.89267 18.1501C3.89267 20.3398 5.66351 22.1106 7.85326 22.1106C10.043 22.1106 11.9662 20.3874 11.9662 18.1977L12.0043 0.375H15.6602C16.0029 3.6501 18.6497 6.21116 21.9343 6.45869V10.7049Z" fill="#010101"/>
</svg>
