<svg width="27" height="27" viewBox="0 0 27 27" fill="none" xmlns="http://www.w3.org/2000/svg">
<path d="M0.624298 26.7507L2.51595 19.6957C1.44115 17.7658 0.882251 15.6 0.882251 13.402C0.882251 6.21839 6.73993 0.375 13.9411 0.375C21.1423 0.375 27 6.21839 27 13.402C27 20.5856 21.1423 26.429 13.9411 26.429C11.7808 26.429 9.6419 25.8822 7.72875 24.8529L0.624298 26.7507ZM8.08344 22.2046L8.53486 22.4727C10.1793 23.4484 12.0495 23.963 13.9411 23.963C19.7773 23.963 24.5279 19.224 24.5279 13.402C24.5279 7.58007 19.7773 2.84102 13.9411 2.84102C8.10493 2.84102 3.3543 7.58007 3.3543 13.402C3.3543 15.3212 3.8917 17.219 4.90202 18.8809L5.18147 19.3312L4.12816 23.2661L8.10493 22.2046H8.08344Z" fill="#010101"/>
<path fill-rule="evenodd" clip-rule="evenodd" d="M18.7992 15.2142C18.2618 14.8925 17.5632 14.5387 16.9291 14.796C16.4454 14.989 16.1337 15.7503 15.822 16.1363C15.6608 16.34 15.4674 16.3614 15.2201 16.2649C13.393 15.5359 11.9957 14.3243 10.9962 12.6517C10.8242 12.3944 10.8564 12.1906 11.0607 11.944C11.3616 11.5902 11.7485 11.1828 11.8238 10.7003C11.9097 10.2178 11.684 9.66029 11.4798 9.23142C11.2219 8.68461 10.9424 7.90191 10.3943 7.59098C9.88912 7.30149 9.22274 7.46232 8.77132 7.82686C7.99746 8.45945 7.62128 9.44586 7.63203 10.4323C7.63203 10.711 7.66427 10.9898 7.73951 11.2578C7.90073 11.9012 8.19093 12.5123 8.53486 13.0806C8.79282 13.5094 9.06152 13.9383 9.36246 14.335C10.3405 15.6538 11.5551 16.801 12.9523 17.6695C13.6509 18.0984 14.414 18.4736 15.1987 18.731C16.08 19.0204 16.8646 19.3207 17.8104 19.1384C18.7992 18.9454 19.7773 18.3343 20.175 17.38C20.2932 17.1012 20.347 16.7796 20.2825 16.4794C20.1427 15.8575 19.3151 15.493 18.81 15.1928L18.7992 15.2142Z" fill="#010101"/>
</svg>
