<svg width="216" height="215" viewBox="0 0 216 215" fill="none" xmlns="http://www.w3.org/2000/svg">
<g opacity="0.1">
<mask id="path-1-inside-1_1_294" fill="white">
<path d="M231.978 -203.482L231.978 -50.7539C231.978 -45.9713 230.781 -30.33 215.271 -30.33C199.761 -30.33 198.247 -46.9473 198.247 -50.2903L198.247 -203.652C198.247 -210.655 191.262 -216.658 183.983 -214.584C176.118 -212.339 169.011 -208.557 162.294 -203.042C153.135 -195.502 145.832 -186.864 139.335 -175.835C139.286 -175.762 138.358 -173.761 136.624 -173.761C126.219 -173.834 98.3746 -172.37 64.4243 -156.973L61.5666 -155.582C60.5896 -155.118 59.8325 -154.289 59.3928 -153.288L58.1716 -150.336C49.0612 -127.032 43.8099 -103.631 42.6131 -80.7675C42.5642 -80.0598 42.2711 -79.4986 41.7582 -79.2058C11.0319 -61.8809 2.50772 -37.87 0.846838 -31.7453C-1.91315 -21.5456 8.24752 -17.5193 11.8868 -17.5193L171.014 -17.5194C178.121 -17.5194 188.135 -12.2243 188.135 -0.43847C188.135 12.0794 177.12 15.3736 171.282 15.3736L11.667 15.3736C6.70877 15.3736 -1.88872 20.3026 0.675868 29.8436C1.7994 33.9674 8.34522 55.5625 38.8028 74.4491C38.9738 74.5467 40.4637 75.2787 41.3674 75.7667C41.6116 75.8887 41.7582 76.1328 41.7338 76.4256C40.8056 90.8955 42.0513 118.908 59.3196 151.191L60.4919 153.216C60.9072 153.924 61.4933 154.485 62.2017 154.876L64.2778 155.998C92.3662 170.761 118.037 172.786 134.743 171.859C135.696 171.81 136.575 172.274 137.039 173.079C143.829 184.596 159.265 205.85 183.69 213.219C191.946 215.708 198.198 208.266 198.198 202.263L198.198 43.7523C198.198 37.4323 203.034 25.6709 214.661 25.6709C227.581 25.6709 231.929 37.7495 231.929 43.2642L231.929 206.387C231.929 207.924 232.222 209.486 232.979 210.828C234.738 213.878 238.084 215.415 241.381 214.903L250.247 213.561C254.619 212.902 257.843 209.144 257.843 204.728L257.843 68.3487C257.843 65.4694 261.312 63.7613 263.534 66.0062L285.101 87.6014C285.565 88.065 285.834 88.6994 285.834 89.3582L285.834 192.771C285.834 199.14 292.526 202.361 297.289 200.335L306.302 196.504C309.599 195.113 311.749 191.868 311.749 188.281L311.749 118.323C311.749 117.029 313.385 115.638 314.802 117.054L353.32 155.535C356.104 158.316 361.453 159.048 364.97 155.535L371.125 149.361C374.593 145.896 374.593 140.211 371.125 136.746L331.655 97.3131C330.36 96.0198 331.533 94.2629 332.925 94.2629L404.44 94.2629C408.104 94.2629 411.377 92.0424 412.745 88.6506L416.262 79.8417C418.607 73.961 413.771 68.5684 408.617 68.5684L303.884 68.5684C303.224 68.5684 302.589 68.2999 302.125 67.8363L281.511 47.1928C279.313 44.9967 280.876 41.5073 283.88 41.5073L420.683 41.5073C424.762 41.5073 428.279 38.4572 428.841 34.4066C428.841 34.4066 430.208 24.4264 430.208 24.036C430.208 20.327 427.229 15.8128 421.977 15.8128L262.704 15.8128C262.533 15.8128 246.168 15.6176 246.168 -0.48727C246.168 -15.3964 259.944 -16.1529 262.704 -16.1529L418.314 -16.1529C429.671 -16.1529 431.65 -28.2803 425.714 -40.1638C417.19 -57.1958 394.939 -72.3734 389.346 -76.1312C389.102 -76.302 388.98 -76.5705 389.077 -76.8633C392.253 -88.6003 398.31 -123.763 368.634 -153.41C340.497 -181.52 307.841 -177.421 294.603 -174.176C293.552 -173.907 292.478 -174.371 291.891 -175.298C282.39 -190.744 266.807 -204.872 256.622 -210.436C253.496 -212.144 250.15 -213.486 246.388 -214.511C239.207 -216.487 231.929 -210.997 231.929 -203.53L231.978 -203.482ZM129.858 -84.7205C110.196 -92.2117 90.7297 -94.0905 72.0448 -90.3328C71.483 -90.2108 70.9213 -90.3816 70.5061 -90.7476C70.1153 -91.0892 69.9199 -91.5528 69.9199 -92.0652C69.9199 -92.114 70.7503 -111.245 79.6897 -134.865C79.934 -135.524 80.4713 -136.085 81.1064 -136.354C95.4192 -142.552 110.318 -146.114 125.339 -146.944C125.877 -146.968 126.414 -146.749 126.756 -146.334C127.122 -145.919 127.245 -145.358 127.147 -144.821C123.19 -126.105 124.9 -106.657 132.203 -87.0142C132.765 -85.5013 131.226 -84.1836 129.858 -84.6961L129.858 -84.7205ZM167.228 -74.0083C156.261 -91.4064 150.766 -108.414 150.766 -124.739C150.766 -131.132 151.914 -156.192 171.233 -175.933C172.137 -176.835 173.407 -176.079 173.407 -175.054L173.407 -75.7652C173.407 -72.7151 169.255 -70.7874 167.228 -74.0083ZM42.149 -43.3359C39.9508 -43.3359 40.195 -45.7028 40.9522 -46.3861C61.4445 -64.9066 83.6954 -66.4439 90.2168 -66.4927C106.948 -66.6391 124.607 -60.9292 142.901 -49.363C146.076 -47.3621 144.195 -43.2139 141.167 -43.2139C110.929 -43.2627 71.4342 -43.3115 42.1734 -43.3115L42.149 -43.3359ZM73.2416 120.689C69.4314 110.221 67.453 99.4604 67.3553 88.7726C67.3553 88.2358 67.5995 87.7478 68.0147 87.4061C68.43 87.0645 68.9673 86.9425 69.4802 87.0645C69.4802 87.0645 86.724 92.1644 102.795 89.9439C104.432 89.7243 105.946 91.652 104.432 93.1649L76.197 121.373C74.8537 122.715 73.4859 121.373 73.2416 120.714L73.2416 120.689ZM95.1261 142.504C93.9293 142.114 93.3676 140.552 94.3934 139.527L122.75 111.368C124.167 109.953 125.901 111.441 125.779 112.783C125.779 112.783 124.558 124.179 124.558 132.573C124.558 136.868 124.851 140.918 125.657 144.481C125.779 145.018 125.657 145.554 125.315 145.969C124.973 146.384 124.46 146.628 123.923 146.604C117.89 146.482 106.655 146.238 95.1261 142.504ZM172.333 73.3266C172.284 103.56 172.259 143.017 172.235 172.249C172.235 174.226 169.988 174.324 169.182 173.445C153.184 155.779 149.056 136.184 149.056 123.593C149.056 107.074 154.796 89.6511 166.202 71.5941C168.4 68.1291 172.357 70.5693 172.357 73.3266L172.333 73.3266ZM139.774 41.0925C142.828 41.0925 144.757 45.2407 141.533 47.266C124.436 58.0026 107.754 63.4929 91.7067 63.7125C63.9114 64.0785 41.7826 44.9723 40.9522 44.2403C39.6088 43.069 40.537 41.0925 42.1001 41.0925L139.774 41.0925ZM387.856 -45.8493C389.517 -44.4828 388.564 -41.7986 386.415 -41.7986L290.133 -41.7986C287.202 -41.7986 285.199 -45.9956 288.374 -47.9722C305.96 -59.0259 323.106 -64.5162 339.568 -64.4186C362.283 -64.2966 379.918 -52.3156 387.856 -45.8248L387.856 -45.8493ZM350.486 -135.182C366.851 -118.833 367.608 -100.752 365.361 -88.4783C365.214 -87.6975 364.433 -86.7702 363.212 -87.0874C343.257 -92.1873 322.471 -90.7964 301.393 -82.9636C299.488 -82.2559 298.706 -84.3056 299.072 -85.2817C307.23 -106.682 308.744 -127.74 303.591 -147.871C303.469 -148.335 303.542 -148.823 303.811 -149.238C304.079 -149.652 304.495 -149.921 304.983 -150.018C316.902 -152.092 334.464 -151.19 350.462 -135.207L350.486 -135.182ZM260.726 -174.151C266.856 -167.368 274.965 -156.192 278.751 -141.356C284.198 -119.907 279.142 -96.6771 263.73 -72.3002C261.727 -69.1281 257.575 -71.007 257.575 -74.0327C257.624 -104.241 257.648 -143.723 257.672 -172.956C257.672 -174.932 259.92 -175.03 260.726 -174.151Z"/>
</mask>
<path d="M231.978 -203.482L231.978 -50.7539C231.978 -45.9713 230.781 -30.33 215.271 -30.33C199.761 -30.33 198.247 -46.9473 198.247 -50.2903L198.247 -203.652C198.247 -210.655 191.262 -216.658 183.983 -214.584C176.118 -212.339 169.011 -208.557 162.294 -203.042C153.135 -195.502 145.832 -186.864 139.335 -175.835C139.286 -175.762 138.358 -173.761 136.624 -173.761C126.219 -173.834 98.3746 -172.37 64.4243 -156.973L61.5666 -155.582C60.5896 -155.118 59.8325 -154.289 59.3928 -153.288L58.1716 -150.336C49.0612 -127.032 43.8099 -103.631 42.6131 -80.7675C42.5642 -80.0598 42.2711 -79.4986 41.7582 -79.2058C11.0319 -61.8809 2.50772 -37.87 0.846838 -31.7453C-1.91315 -21.5456 8.24752 -17.5193 11.8868 -17.5193L171.014 -17.5194C178.121 -17.5194 188.135 -12.2243 188.135 -0.43847C188.135 12.0794 177.12 15.3736 171.282 15.3736L11.667 15.3736C6.70877 15.3736 -1.88872 20.3026 0.675868 29.8436C1.7994 33.9674 8.34522 55.5625 38.8028 74.4491C38.9738 74.5467 40.4637 75.2787 41.3674 75.7667C41.6116 75.8887 41.7582 76.1328 41.7338 76.4256C40.8056 90.8955 42.0513 118.908 59.3196 151.191L60.4919 153.216C60.9072 153.924 61.4933 154.485 62.2017 154.876L64.2778 155.998C92.3662 170.761 118.037 172.786 134.743 171.859C135.696 171.81 136.575 172.274 137.039 173.079C143.829 184.596 159.265 205.85 183.69 213.219C191.946 215.708 198.198 208.266 198.198 202.263L198.198 43.7523C198.198 37.4323 203.034 25.6709 214.661 25.6709C227.581 25.6709 231.929 37.7495 231.929 43.2642L231.929 206.387C231.929 207.924 232.222 209.486 232.979 210.828C234.738 213.878 238.084 215.415 241.381 214.903L250.247 213.561C254.619 212.902 257.843 209.144 257.843 204.728L257.843 68.3487C257.843 65.4694 261.312 63.7613 263.534 66.0062L285.101 87.6014C285.565 88.065 285.834 88.6994 285.834 89.3582L285.834 192.771C285.834 199.14 292.526 202.361 297.289 200.335L306.302 196.504C309.599 195.113 311.749 191.868 311.749 188.281L311.749 118.323C311.749 117.029 313.385 115.638 314.802 117.054L353.32 155.535C356.104 158.316 361.453 159.048 364.97 155.535L371.125 149.361C374.593 145.896 374.593 140.211 371.125 136.746L331.655 97.3131C330.36 96.0198 331.533 94.2629 332.925 94.2629L404.44 94.2629C408.104 94.2629 411.377 92.0424 412.745 88.6506L416.262 79.8417C418.607 73.961 413.771 68.5684 408.617 68.5684L303.884 68.5684C303.224 68.5684 302.589 68.2999 302.125 67.8363L281.511 47.1928C279.313 44.9967 280.876 41.5073 283.88 41.5073L420.683 41.5073C424.762 41.5073 428.279 38.4572 428.841 34.4066C428.841 34.4066 430.208 24.4264 430.208 24.036C430.208 20.327 427.229 15.8128 421.977 15.8128L262.704 15.8128C262.533 15.8128 246.168 15.6176 246.168 -0.48727C246.168 -15.3964 259.944 -16.1529 262.704 -16.1529L418.314 -16.1529C429.671 -16.1529 431.65 -28.2803 425.714 -40.1638C417.19 -57.1958 394.939 -72.3734 389.346 -76.1312C389.102 -76.302 388.98 -76.5705 389.077 -76.8633C392.253 -88.6003 398.31 -123.763 368.634 -153.41C340.497 -181.52 307.841 -177.421 294.603 -174.176C293.552 -173.907 292.478 -174.371 291.891 -175.298C282.39 -190.744 266.807 -204.872 256.622 -210.436C253.496 -212.144 250.15 -213.486 246.388 -214.511C239.207 -216.487 231.929 -210.997 231.929 -203.53L231.978 -203.482ZM129.858 -84.7205C110.196 -92.2117 90.7297 -94.0905 72.0448 -90.3328C71.483 -90.2108 70.9213 -90.3816 70.5061 -90.7476C70.1153 -91.0892 69.9199 -91.5528 69.9199 -92.0652C69.9199 -92.114 70.7503 -111.245 79.6897 -134.865C79.934 -135.524 80.4713 -136.085 81.1064 -136.354C95.4192 -142.552 110.318 -146.114 125.339 -146.944C125.877 -146.968 126.414 -146.749 126.756 -146.334C127.122 -145.919 127.245 -145.358 127.147 -144.821C123.19 -126.105 124.9 -106.657 132.203 -87.0142C132.765 -85.5013 131.226 -84.1836 129.858 -84.6961L129.858 -84.7205ZM167.228 -74.0083C156.261 -91.4064 150.766 -108.414 150.766 -124.739C150.766 -131.132 151.914 -156.192 171.233 -175.933C172.137 -176.835 173.407 -176.079 173.407 -175.054L173.407 -75.7652C173.407 -72.7151 169.255 -70.7874 167.228 -74.0083ZM42.149 -43.3359C39.9508 -43.3359 40.195 -45.7028 40.9522 -46.3861C61.4445 -64.9066 83.6954 -66.4439 90.2168 -66.4927C106.948 -66.6391 124.607 -60.9292 142.901 -49.363C146.076 -47.3621 144.195 -43.2139 141.167 -43.2139C110.929 -43.2627 71.4342 -43.3115 42.1734 -43.3115L42.149 -43.3359ZM73.2416 120.689C69.4314 110.221 67.453 99.4604 67.3553 88.7726C67.3553 88.2358 67.5995 87.7478 68.0147 87.4061C68.43 87.0645 68.9673 86.9425 69.4802 87.0645C69.4802 87.0645 86.724 92.1644 102.795 89.9439C104.432 89.7243 105.946 91.652 104.432 93.1649L76.197 121.373C74.8537 122.715 73.4859 121.373 73.2416 120.714L73.2416 120.689ZM95.1261 142.504C93.9293 142.114 93.3676 140.552 94.3934 139.527L122.75 111.368C124.167 109.953 125.901 111.441 125.779 112.783C125.779 112.783 124.558 124.179 124.558 132.573C124.558 136.868 124.851 140.918 125.657 144.481C125.779 145.018 125.657 145.554 125.315 145.969C124.973 146.384 124.46 146.628 123.923 146.604C117.89 146.482 106.655 146.238 95.1261 142.504ZM172.333 73.3266C172.284 103.56 172.259 143.017 172.235 172.249C172.235 174.226 169.988 174.324 169.182 173.445C153.184 155.779 149.056 136.184 149.056 123.593C149.056 107.074 154.796 89.6511 166.202 71.5941C168.4 68.1291 172.357 70.5693 172.357 73.3266L172.333 73.3266ZM139.774 41.0925C142.828 41.0925 144.757 45.2407 141.533 47.266C124.436 58.0026 107.754 63.4929 91.7067 63.7125C63.9114 64.0785 41.7826 44.9723 40.9522 44.2403C39.6088 43.069 40.537 41.0925 42.1001 41.0925L139.774 41.0925ZM387.856 -45.8493C389.517 -44.4828 388.564 -41.7986 386.415 -41.7986L290.133 -41.7986C287.202 -41.7986 285.199 -45.9956 288.374 -47.9722C305.96 -59.0259 323.106 -64.5162 339.568 -64.4186C362.283 -64.2966 379.918 -52.3156 387.856 -45.8248L387.856 -45.8493ZM350.486 -135.182C366.851 -118.833 367.608 -100.752 365.361 -88.4783C365.214 -87.6975 364.433 -86.7702 363.212 -87.0874C343.257 -92.1873 322.471 -90.7964 301.393 -82.9636C299.488 -82.2559 298.706 -84.3056 299.072 -85.2817C307.23 -106.682 308.744 -127.74 303.591 -147.871C303.469 -148.335 303.542 -148.823 303.811 -149.238C304.079 -149.652 304.495 -149.921 304.983 -150.018C316.902 -152.092 334.464 -151.19 350.462 -135.207L350.486 -135.182ZM260.726 -174.151C266.856 -167.368 274.965 -156.192 278.751 -141.356C284.198 -119.907 279.142 -96.6771 263.73 -72.3002C261.727 -69.1281 257.575 -71.007 257.575 -74.0327C257.624 -104.241 257.648 -143.723 257.672 -172.956C257.672 -174.932 259.92 -175.03 260.726 -174.151Z" stroke="black" stroke-width="2" mask="url(#path-1-inside-1_1_294)"/>
</g>
</svg>
